<svg width="22" height="21" viewBox="0 0 22 21" fill="none" xmlns="http://www.w3.org/2000/svg">
<path d="M20.725 18.312L17.015 14.632C18.4551 12.8364 19.1525 10.5573 18.9638 8.2633C18.7751 5.9693 17.7147 3.83478 16.0005 2.29864C14.2864 0.762505 12.0488 -0.0584908 9.74793 0.0044696C7.44705 0.06743 5.25773 1.00956 3.63015 2.63714C2.00257 4.26472 1.06044 6.45404 0.997481 8.75492C0.934521 11.0558 1.75552 13.2934 3.29165 15.0075C4.82779 16.7217 6.96231 17.7821 9.25631 17.9708C11.5503 18.1595 13.8294 17.4621 15.625 16.022L19.305 19.702C19.3952 19.7999 19.5041 19.8787 19.6252 19.9337C19.7464 19.9887 19.8774 20.0188 20.0104 20.0222C20.1435 20.0257 20.2758 20.0024 20.3997 19.9537C20.5235 19.905 20.6363 19.832 20.7314 19.7389C20.8265 19.6458 20.902 19.5346 20.9533 19.4118C21.0046 19.289 21.0307 19.1572 21.0301 19.0241C21.0295 18.891 21.0022 18.7594 20.9498 18.6371C20.8974 18.5148 20.8209 18.4042 20.725 18.312ZM10.015 16.022C8.63054 16.022 7.27716 15.6115 6.12602 14.8423C4.97487 14.0731 4.07767 12.9799 3.54785 11.7008C3.01804 10.4217 2.87942 9.01423 3.14951 7.65637C3.41961 6.2985 4.0863 5.05122 5.06526 4.07225C6.04423 3.09328 7.29151 2.4266 8.64938 2.1565C10.0072 1.88641 11.4147 2.02503 12.6938 2.55484C13.9729 3.08466 15.0661 3.98186 15.8353 5.13301C16.6045 6.28415 17.015 7.63753 17.015 9.022C17.015 10.8785 16.2775 12.659 14.9648 13.9717C13.652 15.2845 11.8715 16.022 10.015 16.022Z" fill="#959595"/>
</svg>
